<?xml version="1.0" encoding="utf-8"?>
<!-- Generator: Adobe Illustrator 19.0.0, SVG Export Plug-In . SVG Version: 6.00 Build 0)  -->
<svg version="1.1" id="图层_1" xmlns="http://www.w3.org/2000/svg" xmlns:xlink="http://www.w3.org/1999/xlink" x="0px" y="0px"
	 viewBox="0 0 125.2 168.6" style="enable-background:new 0 0 125.2 168.6;" xml:space="preserve">
<style type="text/css">
	.st0{clip-path:url(#SVGID_2_);}
</style>
<g>
	<defs>
		<rect id="SVGID_1_" width="125.2" height="168.6"/>
	</defs>
	<clipPath id="SVGID_2_">
		<use xlink:href="#SVGID_1_"  style="overflow:visible;"/>
	</clipPath>
	<path class="st0" d="M116.6,124.4C116.6,124.4,116.6,124.5,116.6,124.4L111,156l-11.8-13.5c0.6-2.1,6.6-34.9,7-37.3l6.6,6.6
		C116.1,115.1,117.5,119.8,116.6,124.4 M34.5,140.9c-0.5-1.4-1.3-3.8-2.1-7.9l-1.6-7.7h63.3c-0.5,2.6-1,5.3-1.4,7.8
		c-0.7,4-1.4,6.4-1.8,7.8H34.5z M62.7,9.7c6.6,5.9,15.1,16.1,21.6,27.2H40.9C46.8,26.7,54.3,17.4,62.7,9.7 M28.1,70.2
		c1.7-8.1,4.3-16,7.8-23.6c0.1-0.2,0.1-0.3,0.2-0.5c0.1-0.2,0.2-0.6,0.4-1h52.2c0.3,0.7,0.7,1.3,0.8,1.5
		c8.4,19.2,10.9,36.1,8.6,56.5c-0.1,1-0.7,4.2-2.4,13.9H29.2c-1.1-5.4-1.8-9-2-9.8C26,97.1,25.7,82.1,28.1,70.2 M12.4,111.8l6.2-6.2
		c0.1,1,0.2,1.9,0.3,2.8c0,0,0,0.1,0,0.1c0,0.2,6.6,32,7.2,33.9l-12,13.6l-5.6-31.5c0,0,0-0.1,0-0.1C7.7,119.8,9.1,115.1,12.4,111.8
		 M118.6,160.6l6.1-34.6c1.5-7.3-0.8-14.8-6.1-20.1l-11.5-11.5c0.8-17.8-2.4-33.6-10-51.1c-0.6-1.4-1.4-3-2.2-4.3
		c-8-16.1-21-31.3-29.7-38c-1.6-1.2-3.9-1.1-5.4,0.2c-0.1,0.1-0.2,0.2-0.5,0.4C47.5,11.8,37.4,24.8,30.2,39.1
		c-0.7,1.3-1.3,2.7-1.8,4c-3.8,8.1-6.6,16.7-8.4,25.4c-1.7,8.1-2.2,17.4-2,25.9L6.6,105.9C1.3,111.1-1,118.7,0.4,126l6.1,34.6
		c2.5,14.8,11.4,3.7,11.4,3.7l13.3-15.1c0.2,0,0.5,0.1,0.7,0.1h61.6c0.1,0,0.3,0,0.4,0l13.2,15.1"/>
	<path class="st0" d="M12.4,111.8l6.6-6.6c0.4,2.4,6.4,35.2,7,37.3L14.2,156l-5.6-31.5c0,0,0-0.1,0-0.1
		C7.7,119.8,9.1,115.1,12.4,111.8 M90.7,140.9H34.3c-0.5-1.4-1.1-3.8-1.8-7.8c-0.5-2.5-0.9-5.2-1.4-7.8h63.3l-1.6,7.7
		C91.9,137.1,91.2,139.6,90.7,140.9L90.7,140.9z M62.5,9.7c8.5,7.8,15.9,17,21.8,27.2H40.9C47.4,25.7,55.9,15.5,62.5,9.7 M97.1,70.2
		c2.5,11.9,2.1,26.8,0.9,37c-0.2,0.8-0.9,4.4-2,9.8H29.5c-1.7-9.6-2.3-12.9-2.4-13.9c-2.4-20.4,0.2-37.3,8.6-56.5
		c0.1-0.2,0.4-0.8,0.8-1.5h52.2c0.2,0.4,0.4,0.8,0.4,1c0.1,0.2,0.1,0.3,0.2,0.5C92.7,54.2,95.4,62.1,97.1,70.2 M112.7,111.8
		c3.3,3.3,4.8,8,3.8,12.6c0,0,0,0.1,0,0.1L111,156l-12-13.6c0.6-1.9,7.2-33.7,7.2-33.9c0,0,0-0.1,0-0.1c0.1-0.9,0.2-1.8,0.3-2.8
		L112.7,111.8z M18,164.3l13.2-15.1c0.1,0,0.3,0,0.4,0h61.6c0.2,0,0.5,0,0.7-0.1l13.3,15.1c0,0,8.9,11.1,11.4-3.7l6.1-34.6
		c1.5-7.3-0.8-14.9-6.1-20.1l-11.4-11.4c0.2-8.5-0.3-17.9-2-25.9c-1.8-8.7-4.6-17.3-8.4-25.4c-0.5-1.4-1.1-2.7-1.8-4
		C87.7,24.8,77.7,11.8,65.8,1.5c-0.2-0.2-0.4-0.3-0.5-0.4c-1.5-1.4-3.8-1.5-5.4-0.2c-8.7,6.7-21.7,21.9-29.7,38
		c-0.8,1.3-1.5,2.9-2.2,4.3c-7.7,17.6-10.8,33.3-10,51.1L6.6,105.9C1.3,111.1-1,118.7,0.4,126l6.1,34.6"/>
	<path class="st0" d="M62.6,105.9c-13.1,0-23.7-10.6-23.7-23.7s10.6-23.7,23.7-23.7s23.7,10.6,23.7,23.7S75.7,105.9,62.6,105.9
		 M62.6,66.8c-8.5,0-15.4,6.9-15.4,15.4c0,8.5,6.9,15.4,15.4,15.4c8.5,0,15.4-6.9,15.4-15.4C78,73.7,71.1,66.8,62.6,66.8"/>
</g>
</svg>
